<?xml version="1.0" encoding="UTF-8"?>
<svg height="12px" viewBox="0 0 551 655" version="1.1" xmlns="http://www.w3.org/2000/svg" xmlns:xlink="http://www.w3.org/1999/xlink">
    <g stroke="none" stroke-width="1" fill="none" fill-rule="evenodd">
        <path d="M350.607,412.346 L471,622 L334.596159,622 C325.647006,622 317.380432,617.21648 312.921058,609.457529 L312.921058,609.457529 L274.985,543.451 L350.607,412.346 Z M136.67325,65 C145.625727,65 153.894842,69.7870435 158.352984,77.550536 L158.352984,77.550536 L236.655,213.908 L160.983,345.098 L0,65 Z" fill="#fff"></path>
        <path d="M186.068261,630.060049 L551,0 L551,0 L427.299604,0 C409.442016,-3.2246751e-14 392.940022,9.52392606 384.006301,24.9862061 L20,655 L20,655 L142.801715,655 C160.640215,655 177.127587,645.496254 186.068261,630.060049 Z" fill="#fff"></path>
    </g>
</svg>