<?xml version="1.0" encoding="UTF-8"?>
<svg width="723px" height="148px" viewBox="0 0 723 148" version="1.1" xmlns="http://www.w3.org/2000/svg" xmlns:xlink="http://www.w3.org/1999/xlink">
    <title>logo</title>
    <g id="main" stroke="none" stroke-width="1" fill="none" fill-rule="evenodd">
        <g id="logo" transform="translate(0.000000, 0.941176)" fill="#FFFFFF" fill-rule="nonzero">
            <polygon id="Path" points="0 122.89916 0 24.1596639 24.1556414 0 97.2527129 0 120.988256 23.7394958 120.988256 46.2184874 92.4215847 46.2184874 92.4215847 34.2436975 82.549279 24.3697479 39.2791735 24.3697479 28.5666716 35.0840336 28.5666716 111.97479 39.2791735 122.689076 82.9693771 122.689076 93.2617809 112.394958 93.2617809 89.4957983 61.7544225 89.4957983 61.7544225 65.1260504 120.988256 65.1260504 120.988256 122.89916 96.8326148 147.058824 24.1556414 147.058824"></polygon>
            <path d="M131,125.210084 L131,64.2857143 L152.635053,42.4369748 L212.709083,42.4369748 L234.344136,64.2857143 L234.344136,125.210084 L212.709083,147.058824 L152.635053,147.058824 L131,125.210084 Z M199.265943,123.94958 L206.61766,116.596639 L206.61766,72.8991597 L199.265943,65.5462185 L166.078192,65.5462185 L158.726475,72.8991597 L158.726475,116.596639 L166.078192,123.94958 L199.265943,123.94958 Z" id="Shape"></path>
            <path d="M247.060948,0 L327.272484,0 L349.747733,22.6890756 L349.747733,74.1596639 L327.062435,97.0588235 L275.62762,97.0588235 L275.62762,147.058824 L247.060948,147.058824 L247.060948,0 Z M314.249443,73.1092437 L321.60116,65.7563025 L321.60116,31.302521 L314.249443,23.9495798 L275.62762,23.9495798 L275.62762,73.1092437 L314.249443,73.1092437 Z" id="Shape"></path>
            <polygon id="Path" points="360.549205 125 360.549205 42.4369748 388.27568 42.4369748 388.27568 116.386555 395.417348 123.529412 412.221272 123.529412 432.80608 102.941176 432.80608 42.4369748 460.532555 42.4369748 460.532555 147.058824 434.906571 147.058824 434.906571 129.201681 416.842352 147.058824 382.604356 147.058824"></polygon>
            <polygon id="Path" points="473 0 500.726475 0 500.726475 147.058824 473 147.058824"></polygon>
            <polygon id="Path" points="511.39 126.470588 511.39 113.655462 538.696377 113.655462 538.696377 119.537815 543.317457 124.369748 577.345404 124.369748 581.966483 119.537815 581.966483 110.504202 577.135355 105.462185 531.974807 105.462185 512.230196 85.5042017 512.230196 62.605042 532.184857 42.4369748 586.797611 42.4369748 607.17237 63.0252101 607.17237 75.8403361 579.865992 75.8403361 579.865992 69.9579832 575.244913 65.1260504 544.157653 65.1260504 539.536574 69.9579832 539.536574 78.1512605 544.367702 83.1932773 589.528249 83.1932773 609.27286 103.151261 609.27286 126.890756 589.3182 147.058824 531.764758 147.058824"></polygon>
            <path d="M620,125.630252 L620,64.2857143 L641.635053,42.4369748 L700.658838,42.4369748 L722.503939,64.2857143 L722.503939,103.991597 L647.726475,103.991597 L647.726475,117.436975 L654.448045,124.369748 L688.686041,124.369748 L694.987513,117.857143 L694.987513,112.394958 L722.29389,112.394958 L722.29389,126.05042 L701.499034,147.058824 L641.214955,147.058824 L620,125.630252 Z M694.777464,84.6638655 L694.777464,72.4789916 L687.635796,65.1260504 L654.868143,65.1260504 L647.726475,72.4789916 L647.726475,84.6638655 L694.777464,84.6638655 Z" id="Shape"></path>
        </g>
    </g>
</svg>